<svg width="840" height="840" viewBox="0 0 840 840" fill="none" xmlns="http://www.w3.org/2000/svg">
<rect width="840" height="840" fill="white"/>
<path fill-rule="evenodd" clip-rule="evenodd" d="M270.596 421.621C269.101 423.292 267.607 424.963 264.882 425.051C263.124 425.404 261.365 423.469 261.981 421.974C262.596 420.479 263.211 418.984 264.265 417.401C268.571 409.222 273.009 401.131 277.447 393.04C281.885 384.949 286.323 376.858 290.629 368.679C291.947 366.128 293.265 363.578 294.144 361.115C294.847 360.06 295.022 358.653 293.528 358.038C292.473 357.334 291.33 358.478 290.627 359.533C289.221 361.644 287.815 363.755 286.848 365.778L268.833 399.109C264.791 406.321 259.254 412.917 253.717 419.513C251.256 423.207 248.091 423.384 244.399 420.922C242.377 419.955 240.618 418.021 239.387 416.438C237.98 413.976 237.54 411.778 238.331 408.876C238.616 408.018 238.935 407.183 239.253 406.348C240.209 403.841 241.164 401.335 241.23 398.235L237.714 401.225C237.165 401.653 236.774 402.324 236.366 403.026C235.599 404.345 234.77 405.772 232.704 405.887C232.023 403.957 232.77 402.503 233.504 401.076C233.906 400.293 234.305 399.517 234.461 398.676L235.163 395.334L234.987 394.455C234.548 394.543 233.581 394.279 233.581 394.279C232.614 395.159 231.779 396.126 230.944 397.094C230.109 398.061 229.274 399.028 228.307 399.908C225.319 403.25 221.978 402.547 219.868 398.854C217.753 394.945 219.159 391.957 220.86 388.342C221.492 386.997 222.166 385.565 222.714 383.967C224.383 378.603 226.668 374.03 229.392 369.369C229.875 368.644 230.305 367.93 230.724 367.237C231.524 365.911 232.278 364.662 233.259 363.564C234.526 361.303 237.81 356.621 241.754 350.998L241.754 350.998L241.754 350.997C250.389 338.686 262.186 321.866 262.909 316.07C263.699 310.68 266.527 305.583 269.165 300.827L269.165 300.827L269.165 300.826C269.755 299.763 270.335 298.717 270.881 297.689C275.751 290.904 280.42 282.751 285.622 272.464L283.286 268.056C283.133 267.662 282.879 267.306 282.625 266.95C282.371 266.594 282.117 266.238 281.963 265.844C274.177 252.968 268.39 239.322 262.449 225.282C258.939 216.882 255.33 208.52 251.721 200.159C248.111 191.797 244.502 183.435 240.993 175.035C233.82 157.841 228.8 140.271 224.824 121.845C224.499 120.155 224.1 118.433 223.694 116.676C222.983 113.604 222.247 110.425 221.835 107.122C220.967 102.615 219.796 98.1296 218.627 93.6548C216.183 84.293 213.751 74.979 214.141 65.6221C214.814 56.7456 217.547 48.4363 222.186 40.2999C226.088 33.8081 232.083 31.4994 239.71 32.1911C241.063 32.1237 242.57 32.4505 243.031 33.6334C243.863 36.9415 246.169 36.9605 248.476 36.9796L248.476 36.9796L252.996 37.9601C259.669 38.5653 264.776 43.4021 266.286 49.6242C266.668 51.2642 266.922 52.953 267.166 54.5653C267.355 55.8177 267.537 57.0239 267.766 58.1254C267.771 58.2308 267.775 58.3337 267.779 58.4341C267.824 59.607 267.855 60.4304 269.243 60.7315C269.643 60.5776 270.043 60.4237 270.288 59.8755C270.317 59.7473 270.345 59.6162 270.373 59.4836C270.673 58.0747 271.008 56.5015 273.116 56.5189C274.469 56.4515 275.084 58.0286 275.546 59.2114L276.162 60.7885C276.43 64.6161 277.409 68.17 278.388 71.7239C278.877 73.5009 279.367 75.2778 279.767 77.089C280.596 82.1558 282.205 86.9221 283.815 91.6883C284.78 94.5481 285.746 97.4078 286.543 100.333C286.75 101.224 286.971 102.121 287.192 103.023C288.42 108.02 289.686 113.177 289.012 118.431C289.136 121.105 289.26 123.778 291.782 125.528C294.059 127.827 294.183 130.5 294.307 133.174C294.248 137.732 294.434 141.742 297.972 144.916C299.695 146.974 299.973 150.041 299.698 152.869C299.485 157.033 300.87 160.582 302.809 164.37C304.3 166.583 305.419 168.939 306.596 171.417C307.143 172.568 307.703 173.746 308.318 174.949C308.626 175.737 314.756 189.898 316.109 189.831L320.039 197.844C322.152 193.047 324.1 188.515 325.412 185.199C328.342 177.834 332.335 170.759 336.244 163.831C337.61 161.41 338.966 159.007 340.263 156.617C347.031 151.603 348.7 143.952 350.369 136.301C352.916 126.188 356.43 116.338 361.44 107.104C363.018 104.404 363.917 101.379 364.822 98.3378C365.479 96.1287 366.139 93.9107 367.063 91.8017C368.908 87.3165 370.753 82.8314 373.654 79.0495C374.625 77.592 375.302 75.7572 376.034 73.7766L376.034 73.7764L376.034 73.7763C376.362 72.8887 376.7 71.9719 377.081 71.0466C377.932 68.9766 378.737 66.8459 379.55 64.6919L379.55 64.6912C381.674 59.0667 383.857 53.2832 387.098 48.0051C388.598 45.4744 389.547 43.416 390.284 41.8175C392.57 36.8609 392.816 36.3266 401.126 39.8493L401.48 39.9948C405.816 41.7767 409.594 43.3287 410.622 48.4654C411.326 51.9828 414.403 53.653 417.392 54.8836C427.896 58.8511 427.658 62.4613 427.101 70.9212L427.101 70.9218L427.101 70.9225C427.028 72.0205 426.951 73.2002 426.89 74.473C426.934 75.836 426.847 77.1111 426.759 78.3862L426.759 78.3866C426.671 79.6616 426.584 80.9366 426.628 82.2995C426.782 83.0681 426.678 83.9442 426.579 84.7776C426.395 86.3277 426.228 87.7295 427.772 88.0152C429.168 88.3957 429.922 86.7612 430.63 85.2269C430.903 84.6352 431.17 84.0583 431.463 83.6176C431.815 83.09 432.606 82.4742 433.573 82.7379C433.609 82.92 433.721 83.087 433.852 83.2827C434.038 83.5594 434.261 83.8934 434.364 84.4085C434.344 85.3814 434.299 86.3593 434.254 87.3431C434.107 90.5386 433.958 93.7977 434.63 97.1594C434.894 98.4784 433.928 100.501 433.225 101.557C431.204 105.162 429.622 108.68 430.941 112.989C431.651 114.859 431.131 116.73 430.63 118.532C430.448 119.186 430.269 119.831 430.152 120.464C428.483 125.827 426.726 130.751 424.969 135.675L424.969 135.675L424.969 135.675L424.968 135.678C420.777 148.674 415.082 161.133 409.478 173.391C407.915 176.81 406.36 180.213 404.846 183.607C402.804 188.197 400.902 192.826 399.005 197.444C395.922 204.947 392.85 212.424 389.205 219.664C378.045 241.563 366.972 263.901 355.9 286.239C354.443 289.195 352.704 292.116 350.943 295.072C348.774 298.713 346.573 302.408 344.828 306.291C340.873 315.085 335.124 325.119 329.376 335.152C323.627 345.186 317.878 355.219 313.924 364.014C309.618 372.193 304.345 380.108 299.072 388.023C295.029 395.235 290.899 402.007 286.417 409.307C285.099 411.857 283.692 413.968 281.847 416.167L280.704 417.31C279.649 416.607 279.913 415.639 280.264 415.112C285.273 405.877 290.282 396.643 295.819 387.76C300.213 380.021 304.607 372.282 309.089 364.982C309.341 364.493 309.598 364.004 309.855 363.513C312.284 358.88 314.776 354.127 314.536 348.8C311.821 350.668 310.499 353.109 308.909 356.045L308.735 356.364C299.823 371.743 291.246 387.054 282.476 402.71C281.216 404.96 279.951 407.218 278.681 409.484L270.596 421.621ZM269.267 335.915C269.619 335.387 269.531 334.948 269.443 334.508C269.794 333.98 270.146 333.452 270.322 334.332L270.41 334.772C270.058 335.299 269.707 335.827 269.267 335.915ZM319.335 311.396C318.807 311.044 318.719 310.605 318.719 310.605C318.895 309.198 319.071 307.791 319.774 306.735C321.295 303.612 322.764 300.421 324.237 297.219L324.238 297.219C327.784 289.512 331.359 281.744 335.767 274.723C338.491 270.062 340.688 265.049 342.885 260.037L342.885 260.037L342.885 260.036L342.885 260.036L342.886 260.034C343.367 259.195 343.849 258.356 344.348 257.526C344.602 257.102 344.86 256.68 345.126 256.262C345.318 255.958 345.514 255.656 345.715 255.356C347.364 252.889 349.308 250.562 352.024 248.605L352.023 248.606L352.023 248.607C350.794 251.595 349.564 254.584 347.895 257.661C347.141 259.356 346.396 261.049 345.652 262.738L345.652 262.738L345.652 262.739L345.652 262.739C341.11 273.056 336.638 283.217 330.672 292.663C329.09 295.419 327.899 298.096 326.708 300.774L326.707 300.775C326.112 302.114 325.516 303.452 324.872 304.8C324.623 305.282 324.389 305.762 324.16 306.231C323.181 308.241 322.293 310.062 320.654 311.132C320.419 311.484 320.107 311.445 319.794 311.406C319.638 311.386 319.482 311.367 319.335 311.396ZM358.729 232.141C358.36 232.562 357.92 233.066 357.736 233.74C358.288 233.311 358.583 232.711 358.83 232.208C358.938 231.989 359.036 231.789 359.142 231.629C359.036 231.789 358.889 231.957 358.729 232.14L358.729 232.141ZM326.196 331.972C325.844 332.5 324.526 332.764 323.91 331.973C323.881 331.826 323.803 331.689 323.725 331.552C323.568 331.279 323.412 331.005 323.646 330.654C323.822 329.247 324.437 327.751 325.14 326.696L352.645 274.544L352.658 274.518C366.011 247.616 379.364 220.713 392.189 193.459C394.264 189.116 396.205 184.683 398.151 180.236L398.151 180.236L398.151 180.235L398.151 180.235L398.152 180.235C401.644 172.256 405.155 164.233 409.5 156.61C410.115 155.115 410.73 153.62 411.785 152.037L418.288 141.131C418.489 141.265 418.627 141.413 418.744 141.538C418.934 141.742 419.071 141.889 419.343 141.834L418.64 145.176C417.923 146.642 417.193 148.11 416.459 149.581L415.95 150.601L415.95 150.601C412.534 157.448 409.084 164.361 406.514 171.384C403.451 179.575 399.699 187.307 395.948 195.039L395.947 195.04C393.134 200.839 390.32 206.638 387.797 212.63C385.688 218.082 382.701 223.711 379.713 229.339C375.403 237.609 371.396 246.004 367.379 254.419L367.379 254.42L367.378 254.421L367.378 254.422C362.467 264.709 357.542 275.027 352.032 285.185C347.024 294.417 342.105 304.088 337.185 313.76L337.181 313.767C334.545 318.868 331.82 323.529 328.745 328.718C328.041 329.773 327.338 330.829 326.196 331.972ZM350.955 170.163L351.131 171.042C351.571 170.954 352.01 170.866 351.922 170.427C351.992 170.17 352.087 169.877 352.191 169.559L352.236 169.42L352.236 169.42L352.237 169.419L352.237 169.419C352.445 168.786 352.682 168.062 352.841 167.332L350.955 170.163ZM356.931 158.906C356.178 161.669 354.947 164.114 353.238 166.239C353.973 163.265 355.227 160.935 356.931 158.906Z" fill="black"/>
<path d="M511.453 411.317C520.253 411.717 529.053 410.517 536.653 405.317C538.653 403.717 540.653 403.317 542.653 404.117L548.253 401.717C556.653 396.517 564.653 390.117 571.853 382.917C580.253 374.117 588.253 364.517 595.053 354.117C600.653 346.117 605.853 337.717 610.653 329.317C615.853 320.917 619.053 311.717 621.853 302.117L619.453 303.717C619.453 304.117 619.053 304.117 619.053 304.117C619.053 303.717 618.653 302.917 619.053 302.917C619.453 301.317 620.653 301.317 621.853 302.117C625.853 292.517 630.653 283.317 630.653 272.517C630.653 272.117 630.653 271.717 631.053 270.917C633.053 264.917 633.453 258.117 634.253 251.717C636.653 236.517 636.653 220.917 633.853 205.717C631.053 190.917 625.453 177.717 616.253 166.117C611.853 160.517 607.053 155.317 601.853 150.117C594.253 142.117 585.053 137.717 573.453 138.117C569.853 138.117 565.853 137.717 562.253 136.517C556.653 140.517 551.053 144.117 544.253 145.317V145.717C549.053 140.117 555.053 136.917 562.653 136.517C560.653 132.117 557.053 130.117 552.653 131.317C547.053 132.917 541.453 134.117 536.253 137.317C526.253 143.717 516.653 150.917 509.053 160.117C506.653 162.917 503.853 165.717 501.053 168.117C499.853 170.117 497.853 171.317 496.653 173.317C487.853 184.117 480.253 194.917 473.853 207.317C473.053 208.517 472.653 209.717 471.853 210.517C466.253 218.117 461.853 226.517 457.453 234.517C453.453 242.517 451.053 250.517 447.453 258.517C443.053 268.117 439.853 278.117 438.653 288.917C437.853 296.117 436.653 303.317 435.453 310.917C434.653 316.517 434.653 322.517 435.853 328.117L437.853 338.517C439.853 348.517 443.853 358.117 448.653 366.917C455.053 377.317 463.453 386.117 471.453 395.317C473.853 398.117 477.053 400.117 480.253 402.117C489.853 408.117 500.653 410.917 511.453 411.317ZM519.453 370.517C519.053 369.717 519.053 368.917 519.853 368.517C529.053 360.517 537.453 351.317 547.453 344.117L548.653 343.317C549.053 342.117 549.853 341.317 550.253 340.117C549.453 341.317 549.053 342.117 548.653 343.317C542.253 355.317 532.653 363.717 521.053 370.517H519.453ZM530.253 370.517C529.453 370.117 529.853 369.317 530.653 368.517C537.453 362.117 543.853 354.517 551.853 349.317C551.053 351.717 549.853 353.717 548.253 355.717C543.453 361.317 538.253 366.917 531.853 370.517C531.453 370.517 530.653 370.917 530.253 370.517ZM539.453 391.717C539.453 391.717 539.053 391.717 539.053 391.317C538.653 390.917 538.253 390.517 538.653 390.117C539.053 388.517 540.653 387.317 541.853 386.117C553.053 377.317 562.653 366.917 571.853 356.117C575.053 352.517 579.053 348.917 582.653 345.317L584.253 344.117C585.053 345.317 584.653 345.717 584.253 346.517C575.053 358.117 566.653 370.117 556.253 380.517C552.253 384.917 547.453 388.117 542.253 390.917C541.453 391.317 540.653 391.317 539.453 391.717ZM503.053 274.917C503.453 273.317 504.253 271.717 504.653 270.117C504.253 271.717 503.453 273.317 503.053 274.917ZM564.653 384.917C564.653 384.517 563.853 384.117 564.253 383.717C565.053 381.317 567.053 379.317 569.053 377.317C575.853 368.917 583.053 360.917 589.453 351.717C592.653 347.717 595.453 343.717 597.853 339.317C601.453 333.717 604.653 328.117 609.453 323.717C609.853 320.917 610.653 318.917 612.653 317.317C612.253 319.717 611.053 321.717 609.453 323.317C609.053 326.917 607.453 330.117 605.453 333.317C599.053 343.717 593.053 354.517 584.653 363.717C579.453 370.117 574.253 376.117 569.053 382.117C567.853 383.317 566.653 384.117 565.453 384.917C565.453 385.317 564.653 385.317 564.653 384.917ZM574.653 312.917C575.053 311.317 575.453 309.317 577.053 308.117C577.853 310.517 575.453 311.317 574.653 312.917ZM500.253 360.517C497.053 362.117 493.853 362.517 491.453 359.717C490.653 358.917 489.853 358.917 489.453 358.517C488.653 358.917 488.253 359.317 487.853 360.117C488.253 359.317 489.053 358.917 489.453 358.517C489.053 335.717 493.053 313.317 498.653 291.317C499.053 288.917 499.453 286.117 500.253 283.717H498.653C499.453 282.517 499.453 283.717 499.853 283.717C501.453 280.917 502.653 278.117 503.053 274.917C502.253 274.517 501.053 274.517 501.053 273.317C501.053 272.517 501.453 271.717 501.853 271.317C502.653 270.517 503.853 270.517 504.653 270.117C506.653 267.317 508.253 264.117 509.453 260.917L509.053 259.317C508.653 259.717 508.253 259.717 507.853 259.717C507.053 260.517 506.653 261.317 505.853 260.917C505.453 260.517 505.853 259.317 505.853 258.517C506.653 256.517 507.853 254.517 509.853 253.317C512.253 250.917 513.853 248.117 515.453 245.317C520.653 235.317 526.253 225.717 530.253 215.317C529.053 216.917 527.453 218.517 525.853 220.117L524.653 222.917C524.253 224.117 523.453 225.717 521.853 226.117C520.653 226.517 521.453 224.117 523.453 222.117C524.253 221.317 525.053 220.517 525.853 220.117C527.053 213.717 530.253 208.517 533.853 203.317C534.253 202.517 535.453 201.317 536.253 202.517C536.653 203.317 536.253 204.117 536.653 204.917C539.453 200.517 542.653 196.517 545.053 192.517C549.453 185.317 555.053 179.717 562.653 175.717C566.653 173.317 570.653 170.517 575.053 168.917C576.253 168.117 577.453 168.117 578.653 167.717C579.053 167.717 579.453 168.117 579.453 168.117C579.453 168.517 579.853 169.317 579.453 169.717C578.253 171.317 576.253 172.117 574.653 172.917C569.453 176.117 564.653 179.317 559.853 182.517C559.453 182.517 559.453 183.317 559.453 183.717C559.853 184.117 560.253 184.117 560.653 184.117C563.453 183.717 565.853 182.117 568.253 180.917C572.653 178.117 577.453 176.517 582.653 176.117C585.853 175.717 588.653 174.917 591.453 174.517C594.253 173.717 595.853 174.917 596.653 177.717C597.053 179.717 597.453 182.117 597.453 184.517C598.653 204.117 595.853 223.317 587.853 241.717C585.453 248.117 583.053 254.917 579.853 261.317C575.853 269.317 571.853 277.717 566.653 284.917C563.053 290.117 560.253 295.317 557.053 300.517C553.453 307.717 548.253 313.317 543.453 319.717C537.453 327.717 531.453 336.117 523.853 342.917L510.653 354.517C507.453 356.917 503.853 358.917 500.253 360.517ZM515.853 238.117C514.653 238.917 515.853 236.517 518.253 233.717C517.853 235.317 517.453 237.317 515.853 238.117ZM582.253 297.717C582.253 297.317 582.653 297.317 582.653 296.917C583.053 296.917 583.453 296.517 583.853 296.117L585.053 293.317L585.453 292.917H585.053C584.653 294.117 584.253 294.917 583.453 296.117C583.453 296.517 583.453 296.917 583.053 297.317C583.053 298.117 582.653 298.117 582.253 297.717ZM497.053 204.917C497.053 204.517 497.053 204.117 497.453 203.717C497.853 202.917 497.853 202.917 498.253 203.317C498.253 203.317 498.253 203.717 497.853 203.717L497.053 204.917ZM503.053 195.717C503.453 193.717 504.653 192.517 506.253 191.317C506.653 190.517 507.053 190.117 507.453 189.717C508.253 188.517 508.653 187.717 509.053 186.517C509.453 186.117 510.253 185.717 510.653 184.917C511.053 184.517 511.853 184.117 512.253 183.717V183.317C511.453 184.117 511.053 184.517 510.653 184.917L509.053 186.517C508.653 187.717 508.253 188.517 507.453 189.717C507.053 190.117 506.653 190.517 505.853 190.917C505.453 192.917 504.653 194.517 503.053 195.717ZM533.453 209.317H533.853C535.453 208.117 535.853 206.517 536.653 204.917C535.053 205.717 533.853 206.917 533.053 208.517C533.053 208.517 533.053 208.917 533.453 209.317ZM540.253 194.917C539.453 194.917 539.453 193.317 540.253 192.117C541.053 191.317 541.853 190.517 543.053 189.317H543.453C543.853 189.717 544.253 190.117 543.853 190.517C543.453 191.717 543.053 192.517 542.253 193.717C541.853 194.117 541.053 194.517 540.253 194.917ZM622.253 278.117C621.853 278.117 621.453 277.317 621.453 276.917C621.853 274.117 623.453 271.317 624.653 268.917C625.053 268.517 625.053 267.717 625.053 267.317C625.053 266.917 625.453 266.517 625.853 266.917C625.853 266.917 625.453 267.317 625.453 267.717C625.453 268.117 625.053 268.517 624.653 268.917C624.253 271.717 625.053 274.517 623.453 277.317L622.253 278.117ZM525.853 166.917C526.253 166.117 526.653 165.717 527.453 165.317C527.853 164.517 528.253 164.117 529.053 163.717L530.253 162.117C531.053 161.717 531.453 161.317 531.853 160.517L533.453 159.317C533.853 158.517 534.653 158.117 535.053 157.717C534.653 158.117 533.853 158.517 533.453 159.317C533.053 159.717 532.653 160.117 531.853 160.517C531.453 161.317 531.053 161.717 530.253 162.117C529.853 162.917 529.453 163.317 529.053 163.717C528.253 164.117 527.853 164.917 527.453 165.317C527.053 165.717 526.253 166.117 525.853 166.917Z" fill="black"/>
<path d="M95.4246 778.912C100.129 779.584 104.497 779.248 109.201 778.576C115.249 777.568 120.289 774.544 125.665 771.856C129.361 770.176 132.385 768.16 135.409 765.472H135.073C136.417 764.128 137.425 762.448 138.769 761.104C140.113 759.424 141.457 757.744 142.801 756.4C143.809 755.056 145.153 755.056 146.833 755.392C147.841 754.384 149.185 753.712 150.529 752.704C149.857 752.032 149.521 751.36 150.193 750.688L154.225 745.648C162.961 737.248 171.361 728.512 178.753 718.768L188.833 704.992C189.841 703.312 190.513 701.632 191.185 699.616C191.857 698.608 190.849 697.936 189.169 698.272C188.833 698.608 188.161 698.944 187.489 698.944L186.481 701.632C182.449 709.696 176.737 716.416 171.361 722.8C160.609 735.568 148.849 747.328 135.409 757.408C133.393 759.088 131.377 760.768 128.689 761.776C128.353 761.776 127.681 761.776 127.345 761.44V760.432L131.377 756.4C144.481 745.984 156.913 734.56 168.001 722.128L177.745 711.04C180.097 707.68 182.785 704.32 186.481 701.632L187.489 698.944C187.825 697.936 188.161 696.928 188.161 695.92C188.497 694.576 188.497 693.232 188.497 691.552C188.161 687.856 185.137 686.176 181.777 688.192C180.433 689.2 178.753 690.208 177.409 691.552C178.081 688.864 178.417 686.176 179.089 683.488C179.425 682.48 178.417 681.808 177.745 681.808C174.721 681.472 172.369 682.48 170.353 684.832C166.657 689.536 162.961 694.24 158.929 698.272C150.529 706.672 142.129 714.736 133.057 722.128C126.001 728.176 118.945 734.56 110.881 739.264C105.169 742.288 99.4566 745.312 93.4086 746.656C88.7046 747.328 87.0246 746.32 85.6806 741.952C85.6806 741.28 85.3446 740.608 85.3446 739.936C85.0086 734.224 84.3366 728.512 84.6726 722.8C85.0086 714.064 86.3526 705.328 88.0326 696.928C88.7046 693.232 89.7126 689.536 90.3846 685.84C91.0566 682.144 93.0726 678.784 92.4006 675.088C91.3926 670.72 96.7686 669.376 96.7686 665.344C96.7686 664.336 97.1046 663.664 97.1046 662.656C97.4406 662.32 97.1046 661.648 96.7686 661.648C94.4166 660.976 95.4246 659.632 96.0966 658.288C97.1046 655.264 98.4486 652.24 99.4566 649.216H100.801C102.817 647.536 104.161 645.52 104.497 642.832C104.161 643.168 103.825 643.504 103.489 643.504C102.817 643.84 102.145 643.84 102.145 642.832C102.145 641.824 102.481 640.816 103.489 640.144C103.489 640.144 104.161 639.808 104.497 640.144C104.833 640.144 104.833 640.816 104.833 641.152C104.833 641.824 104.497 642.496 104.497 642.832C108.193 637.792 110.881 632.416 112.225 626.368H110.881C110.545 628.048 109.537 629.728 108.529 631.408C108.865 629.392 109.537 627.712 110.881 626.368H112.225C114.241 624.688 115.585 622.336 116.929 620.32C117.937 618.304 117.265 617.632 114.913 618.304C114.241 618.64 114.241 617.632 114.577 616.96C115.585 614.608 117.601 612.592 119.953 610.912C120.289 610.24 120.961 609.232 121.297 608.56C120.625 609.232 120.289 610.24 119.953 610.912V613.6C123.985 608.224 127.345 603.184 129.697 597.136C129.025 597.808 127.681 598.48 126.337 599.488C126.001 599.824 125.665 600.496 125.329 601.168C125.329 601.504 124.993 601.504 124.657 601.168L124.993 600.832C125.329 600.16 126.001 599.824 126.337 599.488C127.345 595.12 130.369 591.424 133.057 588.064L140.449 577.984C143.137 573.952 146.161 569.92 149.521 566.56C153.217 562.864 156.577 559.168 159.937 555.472C161.617 553.456 163.297 551.776 165.985 550.768V551.104C171.697 543.04 179.425 538 188.833 535.312C189.169 534.976 189.841 535.312 189.841 535.312C190.513 535.984 189.841 536.656 189.505 536.992C187.825 537.664 186.481 538.672 185.137 539.344L193.873 537.328C196.897 536.656 198.241 538 197.233 541.36C196.561 543.712 195.553 546.4 194.545 548.752C192.193 554.464 190.849 560.512 188.161 565.888C184.801 571.6 181.441 577.312 178.417 583.024C177.409 585.04 176.401 586.72 175.729 588.736C175.057 590.416 174.721 592.432 175.729 593.776C177.409 596.8 177.745 600.16 178.081 603.52C178.417 606.208 180.433 607.216 183.121 606.544C184.801 605.872 186.145 604.864 188.161 605.2C188.161 605.2 188.833 605.872 188.497 606.208C188.161 606.88 187.153 607.552 186.481 608.56C186.145 608.896 185.809 609.568 186.481 610.24C186.817 610.576 187.489 610.576 188.161 610.576L190.513 609.568C192.865 608.224 195.217 606.544 197.905 605.872C198.241 605.536 198.577 604.864 199.249 604.528C199.921 602.512 201.601 601.168 203.281 600.16C205.297 599.488 206.977 598.48 207.985 596.8C207.985 596.8 207.649 596.464 207.313 596.464H207.649C207.985 596.8 207.985 596.8 207.985 597.136C208.993 595.12 209.665 593.44 210.673 591.76C211.681 588.736 213.025 586.048 215.041 583.36C218.737 578.656 220.417 572.944 221.761 566.896C224.113 557.152 223.105 547.072 219.409 537.664C216.721 529.936 212.689 522.88 208.321 516.16C204.625 510.448 199.585 506.08 193.873 502.72C189.169 499.696 183.793 498.352 178.081 499.36C170.353 500.704 162.625 502.72 155.905 507.088C148.513 511.792 141.793 517.168 134.737 522.208C134.401 522.544 134.065 522.88 133.729 522.88C126.001 529.264 120.625 538 112.561 544.384C111.889 544.72 111.553 545.728 111.217 546.4C104.161 554.464 97.7766 562.864 90.7206 570.928C88.0326 573.952 85.3446 577.312 83.3286 581.344C78.6246 589.744 73.9206 598.144 68.5446 606.544C67.5366 608.224 66.5286 609.904 65.8566 611.584C62.1606 620.992 56.4486 629.392 53.7606 638.8L52.7526 641.152C48.7206 647.872 47.0406 654.928 45.3606 662.32C43.6806 668.032 42.3366 674.08 41.3286 680.128C40.3206 686.848 39.6486 693.904 38.9766 700.624C38.6406 701.296 38.6406 702.304 38.6406 702.976L39.6486 717.088C40.3206 727.84 43.6806 737.92 50.0646 746.656C55.4406 754.384 61.8246 761.104 68.5446 767.824C70.8966 769.84 73.2486 771.52 75.9366 772.864C81.9846 776.224 88.7046 777.568 95.4246 778.912ZM140.449 761.776C140.785 761.44 141.121 760.768 141.793 760.432C141.121 760.768 140.785 761.44 140.449 761.776ZM141.793 760.432C142.129 760.096 142.465 759.76 142.801 759.088L141.793 760.432ZM142.801 759.088C143.473 758.752 143.809 758.416 144.145 758.08V757.744C143.809 758.416 143.473 758.752 142.801 759.088ZM144.145 757.744C144.817 757.408 145.153 757.072 145.489 756.736L144.145 757.744ZM145.489 756.736C145.825 756.064 146.497 755.728 146.833 755.392C146.161 755.728 145.825 756.064 145.489 756.736ZM150.529 752.704C150.865 752.368 151.537 752.032 151.873 751.696L150.529 752.704ZM132.721 738.928C135.745 737.248 138.097 734.896 140.449 732.208C137.425 733.888 134.737 736.24 132.721 738.928ZM151.873 751.36C152.209 751.024 152.881 750.688 153.217 750.352C152.545 750.688 152.209 751.024 151.873 751.36ZM153.217 750.352C153.553 749.68 153.889 749.344 154.561 749.008C153.889 749.344 153.553 749.68 153.217 750.352ZM154.225 749.008H154.561L155.569 747.664C155.233 748 154.897 748.672 154.225 749.008ZM155.569 747.664C156.241 747.328 156.577 746.992 156.913 746.32C156.577 746.656 156.241 747.328 155.569 747.664ZM140.449 732.544C140.785 731.872 141.121 731.536 141.793 731.2C141.121 731.536 140.785 731.872 140.449 732.544ZM141.457 731.2C142.129 730.528 142.465 730.192 142.801 729.856L141.457 731.2ZM115.921 748.672C115.921 748.336 115.921 747.664 115.921 747.664L119.281 744.64C133.393 734.224 146.497 722.8 158.593 710.368C160.945 708.352 162.961 705.664 165.985 704.32C164.977 707.008 162.961 709.024 161.281 710.704L142.801 729.856C145.153 728.848 146.833 727.168 148.513 725.824C152.209 722.128 155.905 718.432 159.937 714.736C161.281 713.056 162.625 711.712 164.641 710.704C164.977 710.368 165.649 709.696 165.985 709.36L167.329 708.016C166.657 708.352 166.321 709.024 165.985 709.36C165.313 709.696 164.977 710.368 164.641 710.704C163.969 713.056 162.289 714.736 160.945 716.416C152.881 725.152 143.809 733.552 134.737 740.944C132.385 742.624 130.369 744.304 127.681 744.976L126.337 746.32C125.329 746.992 124.657 747.328 123.649 747.664C124.657 747.328 125.329 746.992 126.337 746.32C126.673 745.984 127.009 745.648 127.681 745.312L132.721 738.592C129.361 740.944 126.001 743.296 122.641 745.312C120.625 746.656 118.609 747.664 116.593 748.672C116.593 749.008 115.921 748.672 115.921 748.672ZM161.953 741.28C162.625 740.944 162.961 740.608 163.297 739.936C162.961 740.272 162.625 740.944 161.953 741.28ZM163.297 739.936C163.969 739.6 164.305 739.264 164.641 738.592C164.305 739.264 163.633 739.6 163.297 739.936ZM164.641 738.592L165.985 737.584C165.313 737.92 164.977 738.256 164.641 738.592ZM165.985 737.584C166.321 736.912 166.657 736.576 167.329 736.24C166.657 736.576 166.321 736.912 165.985 737.584ZM167.329 736.24C167.665 735.904 168.001 735.232 168.673 734.896H168.337C168.001 735.232 167.665 735.568 167.329 736.24ZM168.337 734.896C169.009 734.56 169.345 734.224 169.681 733.552C169.345 733.888 169.009 734.56 168.337 734.896ZM99.4566 649.216C99.7926 649.888 100.465 649.888 100.801 649.216H99.4566ZM182.449 718.432L183.793 717.088C183.457 717.424 182.785 717.76 182.449 718.432ZM130.033 596.8C131.041 595.792 132.049 594.784 133.057 593.44C133.393 593.104 133.729 592.432 133.729 591.76C133.729 591.088 132.385 591.76 131.713 592.768C131.041 594.112 130.705 595.792 130.033 596.8ZM120.289 560.176V559.504C120.961 558.832 121.633 558.16 122.305 557.152C121.969 558.16 121.297 559.168 120.961 560.176H120.289ZM148.177 572.944L149.185 571.264L148.513 572.272C148.513 572.272 148.513 572.608 148.177 572.944ZM149.185 571.264C149.857 570.928 150.193 570.592 150.529 570.256L149.185 571.264ZM150.529 570.256C150.865 569.584 151.537 569.248 151.873 568.912C151.537 569.248 150.865 569.584 150.529 570.256ZM151.873 568.912C152.209 568.576 152.881 567.904 153.217 567.568C152.545 567.904 152.209 568.24 151.873 568.912ZM153.217 567.568L154.561 566.224H154.225L153.217 567.568ZM154.225 566.224H154.561C154.897 565.888 155.233 565.552 155.569 564.88C155.233 565.552 154.897 565.888 154.225 566.224ZM155.569 564.88C155.905 564.544 156.241 564.544 156.577 564.208V563.536C156.241 564.208 155.905 564.544 155.569 564.88ZM197.905 605.872C199.585 607.216 200.593 605.536 201.601 604.528H199.249C198.577 604.864 198.241 605.536 197.905 605.872ZM201.601 604.528C202.273 604.192 202.609 603.856 202.945 603.184C202.609 603.856 201.937 604.192 201.601 604.528ZM160.609 558.496C162.289 557.488 163.969 556.48 165.313 555.136C169.681 551.104 175.057 548.08 178.753 543.376C176.065 544.384 173.713 546.064 171.361 547.744C169.681 549.088 168.001 550.432 165.985 551.104V550.768C164.641 553.792 161.617 555.472 160.609 558.496ZM145.489 534.304C145.825 533.968 146.497 533.632 146.833 532.96C148.177 530.608 150.529 528.928 153.217 527.92C153.217 527.584 153.553 527.248 153.889 527.248C153.889 526.912 154.225 526.912 154.225 526.912C154.897 526.912 154.561 527.248 154.225 527.584C153.889 527.584 153.553 527.92 153.217 527.92C151.537 530.272 149.521 532.288 146.833 532.96C146.161 533.296 145.825 533.968 145.489 534.304ZM213.025 579.664C212.353 580 212.353 578.992 213.025 577.984L214.369 576.64C214.369 576.976 214.369 577.648 214.033 578.32L213.025 579.664ZM178.753 543.376C179.089 542.704 179.425 542.368 180.097 542.032C179.425 542.368 179.089 542.704 178.753 543.376ZM179.761 542.032H180.097L182.449 540.688C181.777 541.024 180.769 541.36 179.761 542.032ZM182.449 540.688C183.457 540.352 184.129 540.016 185.137 539.344C184.129 539.68 183.457 540.352 182.449 540.688ZM172.705 535.648C172.033 534.976 172.705 534.64 173.377 533.968C177.409 530.944 181.777 528.592 186.817 527.92C187.825 527.92 188.497 527.92 188.833 528.928C188.833 529.264 188.833 529.936 188.497 529.936C188.161 530.608 187.489 530.944 186.817 530.944C182.785 532.624 178.753 534.304 174.385 535.648C174.049 535.984 173.041 535.984 172.705 535.648ZM163.297 517.84C168.001 512.8 174.049 511.12 180.433 510.112C181.105 509.776 181.777 510.112 181.777 510.784C181.777 511.12 181.441 512.128 180.769 512.128C175.057 514.144 169.345 516.496 163.297 517.84ZM170.689 519.184H171.025C172.369 518.176 173.713 517.168 175.393 516.496C177.409 515.488 179.425 514.144 181.777 514.816C183.457 515.152 180.433 517.168 176.065 518.176C174.385 518.512 172.705 518.848 171.025 518.848L170.689 519.184Z" fill="black"/>
<path d="M235.209 737.92C238.905 739.6 242.937 737.584 243.609 733.888C243.945 731.2 244.953 728.848 246.633 726.832C247.305 725.824 247.641 724.48 247.977 723.472C247.641 723.472 246.969 723.472 246.633 722.8C246.969 722.8 246.969 722.8 247.305 722.8L247.977 723.472C249.321 721.456 250.329 719.44 250.665 717.088C250.329 717.088 249.657 717.088 249.321 717.088L248.984 717.424L249.321 717.088H250.665C253.017 714.064 254.36 710.368 255.704 707.008L253.017 708.016C252.681 709.024 252.345 709.696 251.673 710.704H252.008L253.017 708.016C253.689 704.992 255.033 702.64 258.057 701.296C259.401 700.624 260.409 699.28 258.393 697.6C257.721 696.928 258.057 695.92 258.393 695.248C259.401 693.568 260.409 691.888 261.417 690.544C262.089 689.2 263.097 688.864 264.441 688.864C266.457 688.192 268.137 687.52 270.153 687.52C275.193 687.184 280.233 686.512 285.273 686.176C287.961 685.84 290.985 685.504 293.673 684.16C295.017 683.488 296.36 683.152 297.704 683.824L308.456 681.136C316.856 678.784 317.865 679.792 318.201 688.528C318.201 693.568 318.536 698.272 318.536 703.312C318.872 709.024 320.553 714.064 324.249 718.432C325.929 720.448 326.936 722.464 327.944 724.48C328.616 726.16 329.624 728.176 330.632 729.52C331.976 731.536 333.656 732.88 336.008 732.544C338.36 732.544 340.04 733.216 341.048 735.568C341.72 736.912 343.4 736.576 344.408 735.904C346.088 735.232 347.432 734.224 348.776 733.216C352.136 731.536 353.481 728.512 353.816 724.816V721.792C354.153 714.064 354.152 706.672 355.496 699.28C356.504 692.896 356.169 686.176 357.849 679.792C358.185 679.12 358.185 678.112 358.185 677.104C357.849 670.72 358.857 664.672 359.865 658.288C360.537 652.576 361.544 646.864 361.88 641.152C362.552 629.728 364.905 618.976 366.249 607.552C366.585 604.864 367.257 602.176 367.592 599.488C368.6 587.728 369.272 575.968 369.944 564.544C370.28 559.504 369.608 554.8 368.936 549.76C367.928 546.4 366.921 543.04 366.249 539.344C365.577 536.32 364.568 533.296 361.88 530.944C360.2 529.6 359.193 527.584 358.857 525.568C358.185 521.872 356.168 518.848 353.48 516.496C351.801 515.152 350.456 513.472 349.448 511.792C347.768 508.768 344.744 507.76 341.72 508.768C337.688 509.776 333.992 511.456 330.632 514.144C324.248 519.184 318.2 524.224 313.16 530.608C310.472 533.968 307.449 537.664 304.424 541.024C298.377 547.408 293.337 554.8 288.297 562.192C285.609 566.56 283.257 571.264 280.905 575.632C276.873 582.016 272.505 588.4 269.145 595.456C265.113 603.856 260.745 612.592 256.377 620.992C252.681 627.712 248.985 634.096 246.297 640.816C243.273 647.872 240.249 654.592 236.889 661.312C233.865 667.024 231.177 673.072 228.825 679.456C227.817 681.808 227.145 684.16 225.801 686.512C221.769 693.904 220.088 702.304 217.4 710.368C215.384 716.08 217.064 721.456 220.76 725.824C222.44 727.504 223.785 729.52 225.129 731.536C226.473 734.224 228.153 736.576 231.849 736.576C232.857 736.576 234.201 737.584 235.209 737.92ZM262.089 694.24C262.425 693.232 263.097 692.224 263.433 691.552C262.761 692.224 262.425 693.232 262.089 693.904V694.24ZM263.433 691.552C263.769 690.544 264.105 689.872 264.777 688.864H264.441L263.433 691.552ZM346.424 730.864C346.088 730.864 345.753 730.528 345.417 730.528C345.417 729.856 345.752 729.184 346.424 729.184C346.76 728.848 347.096 729.184 347.432 729.52C347.432 730.192 347.097 730.528 346.424 730.864ZM289.977 643.168C290.649 642.16 290.985 641.152 291.321 640.48C290.985 641.152 290.649 642.16 289.977 643.168ZM291.321 640.48C290.985 639.472 290.649 638.8 289.977 637.792C295.353 633.424 298.712 627.712 300.392 621.328C302.072 620.32 303.081 618.64 304.089 616.96L308.12 612.256C306.776 614.944 305.769 617.968 304.089 620.656C300.057 627.376 296.361 634.432 291.321 640.48ZM297.704 645.52C295.016 645.856 291.993 645.52 290.313 642.832C289.641 643.168 288.969 643.504 288.633 643.84C287.625 643.84 287.289 643.504 287.289 642.832C287.625 640.816 288.969 639.472 290.313 637.792C292.329 631.744 296.024 626.368 300.392 621.328C303.08 614.608 306.105 608.224 311.816 603.52V603.184C310.472 606.208 309.128 609.232 308.12 612.256C308.792 611.584 310.137 610.576 310.809 609.568C313.161 606.208 315.176 602.512 317.529 598.816C317.864 598.48 317.864 597.808 317.529 597.808C317.192 597.136 316.52 597.472 315.848 597.808H314.84C314.84 597.136 314.504 596.8 314.84 596.464C316.856 593.776 318.872 591.088 320.888 588.064H321.896C321.896 588.4 322.232 588.736 322.232 589.072C321.896 590.08 321.56 591.424 322.232 592.096C324.584 595.456 323.912 598.816 323.576 602.176C322.232 611.248 321.56 620.32 320.888 629.392C320.888 632.752 319.88 636.112 319.208 639.472C318.872 641.488 317.528 642.832 315.512 643.168C309.464 643.84 303.752 644.848 297.704 645.52ZM335 526.576C335.336 526.24 335.672 525.904 336.008 525.232C336.68 524.896 337.016 524.56 337.352 524.224L338.697 522.88C338.697 522.88 339.032 522.544 338.697 522.88C338.36 523.216 338.024 523.888 337.352 524.224C337.016 524.56 336.68 524.896 336.344 525.568C335.672 525.904 335.336 526.24 335 526.576Z" fill="black"/>
<path d="M443.368 765.472C446.392 765.808 449.416 765.472 452.104 765.136C455.464 764.8 458.488 763.792 461.512 765.472C462.52 766.144 463.864 765.472 465.208 765.472C467.56 765.136 469.912 764.464 472.264 764.464C475.288 764.128 477.976 763.12 480.664 761.44C484.36 758.752 488.056 756.736 492.424 755.056C505.864 749.68 517.288 741.28 527.704 731.872C530.392 729.52 532.744 727.168 535.768 725.152C537.784 724.144 539.128 722.128 540.136 720.112C538.792 717.424 540.472 715.072 541.48 713.056C546.184 705.328 547.192 696.928 547.528 688.192C547.528 681.808 546.184 675.088 545.512 668.704C544.504 659.296 542.488 650.224 538.456 641.488C535.432 634.096 532.072 626.704 528.376 619.648C523 608.224 515.272 599.488 504.856 592.432C500.488 589.072 495.784 586.384 491.08 583.36L488.392 581.344C487.384 580.672 487.048 578.992 488.392 578.32C489.736 577.312 491.08 576.304 492.76 575.632C502.168 570.256 512.584 566.56 522.664 563.536C527.032 562.192 531.4 561.52 535.768 560.512C538.456 560.176 539.8 561.52 539.464 563.872C539.464 567.232 540.472 569.92 541.48 573.28V572.944C542.824 574.624 541.816 576.304 541.48 577.984C540.472 580.336 540.136 582.352 540.472 584.704C541.144 587.728 542.488 588.736 545.512 588.4C546.184 588.4 547.192 588.064 547.864 588.4C548.536 588.4 549.208 589.072 548.872 589.408C548.536 590.416 547.864 591.088 547.528 591.76C546.52 593.776 547.528 595.456 549.88 595.456C552.568 595.456 555.256 594.448 557.944 593.44C559.96 592.432 561.976 591.424 564.328 591.088C562.312 593.776 559.288 594.784 556.264 597.472C561.304 596.128 563.656 595.12 566.68 592.096C569.032 589.744 571.048 587.056 573.4 584.704C573.064 583.024 573.736 581.68 575.08 581.008C576.76 579.664 578.44 578.656 579.784 576.976C583.48 573.616 584.488 568.912 586.504 564.88C587.512 563.2 587.512 561.184 586.504 559.168C585.832 557.152 585.832 555.136 585.832 553.12C586.168 546.736 585.16 540.352 582.136 534.64C580.456 531.28 579.112 527.92 578.104 524.56C576.088 517.504 571.048 512.8 565.336 508.768C564.328 508.096 562.984 507.424 561.304 507.088C555.928 506.416 550.552 505.408 544.84 506.08C540.808 506.416 536.44 506.416 532.072 506.416C526.024 506.416 519.976 506.752 513.928 508.768C510.232 510.448 506.2 511.12 502.168 512.128C498.136 513.136 494.104 511.456 490.072 513.136C486.376 514.48 483.016 516.496 478.984 517.504C475.288 518.512 471.592 519.52 468.232 521.872C464.872 524.224 460.84 525.904 456.808 527.248C452.104 528.592 448.072 531.616 444.712 534.976C442.024 537.328 439.672 539.68 437.656 542.368C435.64 544.72 434.296 547.408 433.288 550.096C431.608 556.144 430.936 561.856 432.28 567.904C433.288 574.288 434.296 581.008 434.632 587.392C434.968 589.744 435.304 592.096 435.976 594.448C436.312 596.8 436.984 598.816 438.664 600.832C441.016 604.528 443.704 607.888 446.728 611.584C449.416 614.944 452.776 617.968 456.808 620.32C463.528 624.352 470.92 628.048 478.648 630.736C482.344 631.744 486.376 633.088 489.736 634.768C494.776 637.12 499.816 639.472 504.856 642.496C511.24 646.192 512.248 649.216 510.232 656.272C508.552 661.648 506.536 667.024 503.176 671.728L495.112 682.816C493.432 685.504 491.08 687.52 488.392 689.536C487.048 690.208 486.04 691.216 485.032 692.224C480.328 696.928 474.28 699.952 468.232 702.64C458.152 707.344 447.4 710.368 436.984 713.728C433.96 714.4 431.272 714.736 428.248 714.4C426.232 714.4 424.888 713.728 424.216 712.048C423.544 710.032 424.216 708.688 425.56 707.344C429.256 703.984 432.616 700.288 435.304 695.584V695.92L431.608 696.928C430.936 699.28 429.592 700.96 427.576 701.968V702.304C428.248 699.952 429.592 698.272 431.608 696.928C432.28 694.576 433.624 692.896 435.304 691.216L443.032 684.496C445.72 682.144 448.744 680.128 451.432 677.776C452.104 677.44 453.112 676.768 452.104 675.76C449.08 676.768 446.392 678.112 443.704 679.792L433.624 686.848C432.28 687.52 430.936 687.856 430.936 686.848C430.936 686.176 431.272 685.504 431.944 684.832C433.96 683.152 435.64 681.472 437.656 679.792L445.048 674.752C446.392 674.08 447.736 673.408 448.744 672.4C450.76 670.384 451.096 667.36 449.416 665.344C448.072 663.328 446.056 664.336 444.376 665.008C442.024 666.016 439.672 667.024 437.32 668.032L430.936 671.056C430.264 671.392 429.592 672.064 428.92 670.72C430.936 668.032 434.296 667.36 436.648 665.008C433.96 665.68 431.608 667.024 428.92 668.032C426.904 669.04 424.888 670.048 422.536 670.048V670.384C425.56 666.352 429.928 664.336 433.96 662.32L441.016 659.296C442.36 658.624 442.36 656.944 441.016 656.272C439 654.928 436.984 653.92 434.968 654.592C429.592 655.6 423.88 656.272 419.176 659.632C417.496 660.976 415.816 661.984 413.8 662.992C409.432 666.016 405.064 670.048 401.704 674.416C398.68 678.448 395.656 682.816 392.632 687.52C385.912 697.936 385.24 709.36 388.264 721.12C389.608 726.496 391.96 731.872 393.976 737.248C396.328 743.968 400.696 749.008 406.408 753.04C417.496 761.104 429.928 764.8 443.368 765.472ZM417.16 678.784L418.84 677.776C418.504 678.112 418.168 678.112 417.496 678.448C417.496 678.448 417.496 678.784 417.16 678.784ZM435.304 695.92C435.64 695.248 436.312 694.912 436.648 694.576C436.312 694.912 435.64 695.248 435.304 695.584V695.92ZM492.76 758.752C498.136 758.416 501.16 756.736 504.52 754.72C500.488 754.72 496.792 755.056 492.76 758.752ZM436.648 694.576L437.992 693.232C437.32 693.568 436.984 693.904 436.648 694.576ZM437.992 693.232L439.336 691.888H439L437.992 693.232ZM475.624 752.704L474.28 751.696C474.28 751.36 474.28 750.352 474.616 750.016C475.624 749.008 476.632 748.336 477.976 748C486.712 744.304 495.112 739.936 503.848 735.904C504.52 735.568 505.528 735.232 506.2 735.232C506.536 735.232 507.208 735.232 507.208 735.568C507.544 735.904 507.544 736.576 507.208 736.912L505.192 739.264C500.488 742.96 495.448 746.32 490.072 748.336L478.312 752.368C477.64 752.368 476.632 752.704 475.624 752.704ZM439 691.888C439.672 691.552 440.008 691.216 440.68 690.544H440.344C440.008 690.88 439.672 691.552 439 691.888ZM455.8 728.848C455.128 728.848 454.456 728.848 453.784 728.512C453.448 728.512 453.112 728.176 453.112 727.84V727.168C454.12 726.496 454.792 725.824 455.8 725.488C465.88 722.464 475.288 718.096 484.696 713.728C486.376 712.72 488.392 712.384 490.408 712.384V712.048L490.072 712.384C489.064 714.4 487.048 715.744 485.032 717.088C476.296 723.136 465.88 726.16 455.8 728.848ZM468.232 730.864L467.896 730.528C467.56 730.192 467.896 730.192 467.896 729.856L468.232 729.52C475.288 726.16 482.008 722.8 489.064 719.776C489.4 719.44 490.408 719.44 490.408 720.112C490.744 720.448 490.072 721.456 489.736 721.792C485.368 725.152 480.328 727.504 474.952 729.184C472.936 729.856 470.584 730.864 468.232 730.864ZM504.856 754.048C509.224 753.04 512.92 750.352 515.944 746.992C511.912 748.672 507.88 750.688 504.856 754.048ZM436.648 665.008C437.656 664.672 438.328 664.336 439.336 663.664C438.328 664.336 437.32 664.672 436.648 665.008ZM439 663.664L441.688 662.656L439 663.664ZM516.28 746.656C525.352 743.968 531.064 737.584 535.096 728.848L531.736 731.872C527.704 736.576 523.336 740.272 518.632 744.304C517.624 744.976 516.952 745.648 516.28 746.656ZM499.816 708.016C500.152 707.68 500.152 707.344 500.488 707.344C500.824 706.672 501.496 706.336 501.832 706C502.168 705.664 502.504 704.992 503.176 704.656C502.84 704.992 502.168 705.664 501.832 706L500.488 707.344C500.488 707.344 500.152 707.344 500.152 707.68L499.816 708.016ZM462.184 548.752C461.848 548.416 461.848 548.08 462.52 548.08L463.528 547.408C464.2 547.072 465.208 546.736 465.88 546.4L463.528 547.408C463.192 547.744 462.856 548.08 462.52 548.416L462.184 548.752ZM482.008 576.976C481.672 576.976 481.672 576.64 481.672 576.64C481.336 576.304 481.336 575.632 481.672 575.632C482.68 573.616 484.696 572.608 486.712 571.936C491.08 569.584 495.784 567.232 500.488 565.216C509.896 561.856 519.304 558.16 529.048 556.48C531.4 556.144 533.752 555.472 535.768 555.136C537.112 554.8 538.456 554.8 539.8 554.8C539.8 554.8 540.472 555.136 540.472 555.472C540.472 555.808 540.136 556.48 540.136 556.48C537.448 557.152 535.096 558.16 532.744 558.496C516.952 561.856 502.168 567.568 487.72 574.624C486.376 575.296 484.696 576.304 483.352 576.976H482.008ZM481.336 564.208C483.016 561.184 486.04 559.84 489.064 558.832C503.848 552.112 519.304 547.744 535.096 544.72C538.792 544.048 542.488 543.712 545.848 543.04C546.856 543.04 548.2 543.04 549.208 543.376C549.544 543.376 549.88 544.384 550.216 544.72C550.552 545.392 549.88 546.064 549.544 546.4C547.864 547.744 545.848 547.744 544.168 548.08L520.312 552.112C509.896 554.128 499.816 558.496 490.072 561.856C487.048 562.864 484.36 564.208 481.336 564.208ZM484.024 540.016C492.424 535.984 501.496 532.96 510.568 530.944C518.632 528.928 527.032 527.248 535.432 526.24C539.128 525.568 542.824 525.232 546.184 525.568C546.856 525.568 547.864 525.904 547.864 526.24C548.2 527.584 547.192 527.248 546.52 527.584L532.408 529.6C519.304 531.28 506.536 534.304 494.104 538C490.744 539.008 487.384 539.68 484.024 540.016ZM477.304 535.312C478.312 533.968 479.992 533.296 481.672 532.96C487.72 530.944 493.768 528.592 499.816 526.912C512.248 523.888 525.016 520.864 537.784 519.856C544.168 519.184 550.552 519.184 557.608 521.536C551.56 522.208 546.52 522.88 541.48 523.216C521.32 524.896 501.832 529.264 482.344 535.312C481 535.648 479.32 537.328 477.304 535.312ZM573.4 584.704C573.736 584.368 574.072 583.696 574.744 583.36C574.072 583.696 573.736 584.032 573.4 584.704Z" fill="black"/>
<path d="M639.952 777.568C642.304 776.896 644.32 775.888 646.672 776.224C649.696 776.56 650.368 775.888 651.04 772.864C651.712 769.84 651.712 766.48 653.056 763.456C654.064 761.104 654.4 758.752 653.728 756.064C653.056 754.384 654.064 752.704 655.408 751.696V751.36C657.088 752.368 657.424 750.688 657.76 749.68C662.464 738.256 666.832 727.168 671.2 715.744C672.88 711.712 674.224 707.344 676.24 703.312C680.944 693.232 685.648 683.152 689.68 672.4C691.024 668.704 692.704 665.008 694.72 661.648C696.736 658.624 698.08 655.264 698.752 651.568C697.408 653.584 695.728 655.6 694.048 657.616C693.712 658.288 693.04 658.624 692.704 658.288C691.696 657.952 692.032 656.944 692.368 656.272C694.048 653.92 695.392 651.232 698.752 651.568C702.448 645.184 706.144 638.8 707.488 631.408H707.824H706.48C706.816 628.72 708.496 626.368 710.176 624.016C712.864 620.656 714.88 617.296 716.56 613.264C715.888 613.936 714.88 614.272 713.872 614.608H714.208C714.544 613.936 715.552 613.6 716.56 613.264C717.904 611.248 718.912 609.568 717.904 606.88V607.216C720.592 603.184 724.288 599.488 723.616 594.112C723.616 593.776 723.952 593.104 724.288 592.768C726.304 589.744 727.648 586.048 728.656 582.352C729.328 578.656 730 574.96 732.016 571.6C732.352 571.6 732.352 571.264 732.352 570.928C732.352 570.256 731.344 569.248 730.672 569.584L728.992 570.592C728.32 570.928 727.984 571.264 727.312 570.928C726.304 570.256 726.64 569.248 726.976 568.576C727.312 567.904 727.648 567.232 727.648 566.896C730.672 561.184 732.352 554.8 733.024 548.416C733.36 544.384 734.032 543.376 738.4 542.704L752.176 541.024C756.208 540.352 760.24 539.344 764.272 539.008C773.344 538.336 782.416 537.328 791.488 537.664C795.856 538 799.888 537.664 804.256 539.344C808.288 540.688 811.984 539.68 815.68 537.664C817.024 536.992 817.36 535.648 816.352 534.64C815.344 533.968 814.336 533.632 813.664 532.624C812.656 531.952 812.656 530.944 813.664 529.936L815.008 528.928C818.368 526.24 818.704 524.56 817.024 521.2C816.352 519.184 814.672 517.168 813.664 515.152C812.32 511.792 809.968 508.768 810.976 505.072C811.648 503.728 810.976 502.384 810.304 501.376C807.616 496.672 803.92 493.312 798.88 491.632C793.84 489.952 788.464 489.28 783.088 489.28C769.984 488.944 757.216 489.952 744.112 490.96C733.024 491.968 721.936 492.64 710.512 494.32C706.816 494.992 703.12 495.328 699.424 496.336C695.392 497.344 691.36 498.016 687.328 497.68C685.984 497.68 684.304 498.016 682.96 498.352C679.264 499.696 675.568 500.368 671.872 500.704C660.112 502.72 648.688 505.408 637.6 508.768C632.56 510.112 628.192 512.8 623.824 515.488C618.112 518.848 615.424 524.56 615.76 530.944C616.096 535.312 616.432 539.68 615.088 544.048C614.752 545.392 614.752 546.736 615.088 547.744C615.088 550.432 616.432 551.44 619.12 551.776C620.128 552.112 621.472 552.112 622.816 552.112C623.488 552.448 623.824 552.784 624.16 553.456C624.16 553.456 623.824 554.128 623.824 554.464L622.816 555.136C621.808 555.808 620.8 556.48 621.472 557.824C621.808 558.832 622.816 559.168 624.16 559.504C626.176 559.84 628.192 559.168 630.208 558.832C645.664 555.136 661.456 551.104 676.912 548.416C678.928 548.08 680.608 546.736 682.624 548.08C683.296 549.088 681.28 550.432 677.584 551.104C677.248 551.104 677.248 551.44 676.912 551.44C663.472 553.792 650.368 557.152 637.264 560.176C635.248 560.512 633.232 561.184 631.216 561.856C634.24 562.192 637.264 561.856 639.952 561.184C650.032 558.832 660.448 556.816 670.528 554.464C672.88 554.128 675.232 553.792 677.584 553.792C679.936 553.792 680.944 555.808 679.936 557.824C678.592 560.512 676.912 562.528 675.568 565.216C672.88 571.264 669.856 577.312 666.16 583.36C664.48 586.384 662.464 589.408 661.12 592.768C659.104 599.152 655.744 605.2 653.392 611.584L643.312 637.12C640.288 643.84 637.6 650.896 635.584 657.952C634.24 662.656 632.56 667.36 630.88 672.064C627.52 681.808 623.488 691.552 620.464 701.632C619.792 704.992 619.12 708.688 617.776 711.712C614.08 720.112 612.736 728.512 611.392 737.248C610.384 741.28 610.72 745.312 611.392 749.344C612.064 752.368 613.408 755.056 615.76 757.072C618.448 759.424 620.464 762.448 621.472 765.808C622.144 768.16 623.488 770.176 625.168 771.856C626.512 773.2 627.856 773.872 629.872 773.536C630.544 773.2 631.216 773.2 632.224 772.864C634.912 772.528 635.248 772.864 636.256 775.552C637.264 777.904 637.936 778.24 639.952 777.568ZM663.808 728.176C663.472 727.84 663.136 727.168 663.472 727.168C663.472 726.16 663.808 725.488 664.48 724.816C664.48 724.48 664.816 724.48 665.488 724.816V725.488C665.488 726.16 665.152 726.832 664.816 727.504L663.808 728.176ZM675.904 696.592C675.904 696.256 676.24 696.256 676.24 695.92C676.576 695.584 676.912 695.584 676.912 695.248C677.248 694.912 677.248 694.576 677.248 694.24C677.584 693.568 677.92 693.568 677.92 693.904V694.24L676.912 695.248C676.912 695.584 676.576 695.92 676.576 696.256C676.24 696.592 676.24 696.928 675.904 696.592ZM684.304 679.12C683.968 679.456 683.632 679.456 683.632 678.784C683.632 678.448 683.968 678.112 684.304 677.776C684.304 677.44 684.304 677.44 684.64 677.44C684.976 677.44 685.312 677.776 684.976 678.112C684.976 678.448 684.64 679.12 684.304 679.12ZM700.096 644.176C699.76 644.176 699.424 643.84 699.76 643.504C699.76 642.832 700.096 642.16 700.768 642.16C701.104 642.16 701.44 642.496 701.104 642.832C701.104 643.504 700.768 643.84 700.096 644.176ZM628.528 532.624C628.864 532.624 628.864 532.288 629.2 531.952C629.872 531.952 630.208 531.952 630.544 531.616L629.536 532.624C629.2 532.96 628.864 532.624 628.528 532.624ZM631.888 552.112L631.552 551.776C631.552 551.44 631.216 550.768 631.552 550.768C632.56 549.088 634.24 548.752 635.92 548.08C643.312 546.064 650.704 544.048 658.096 542.368C667.504 540.016 677.248 538.336 686.656 536.32C688 535.984 689.344 535.984 690.688 535.984C691.36 535.984 691.696 536.32 691.696 537.328C691.696 537.664 691.36 538.336 691.024 538.672C689.68 539.344 688.336 540.016 686.656 540.352C669.184 543.712 651.376 547.072 633.904 552.112H631.888ZM653.728 526.576C653.728 524.56 655.072 524.896 656.08 524.56C672.544 520.528 689.008 517.168 706.144 514.816C716.896 513.472 727.648 511.792 738.4 510.448C750.16 508.768 761.92 508.096 774.016 507.424C780.736 507.088 787.456 508.096 794.176 509.44C770.656 510.448 747.136 512.128 723.616 515.152C700.432 517.84 677.248 522.544 653.728 526.576ZM648.352 522.544C647.68 522.544 646 522.544 646 522.208C645.664 520.528 647.008 520.528 648.016 520.192C657.424 517.504 667.168 515.488 677.248 513.472C688.336 511.792 699.76 509.776 711.184 508.096C726.304 506.08 741.424 503.728 756.88 503.056C762.928 502.72 769.312 501.712 775.696 501.712C780.064 502.048 784.432 502.048 788.464 502.384C790.144 502.72 791.488 502.72 792.832 503.056C793.504 503.392 794.512 503.728 794.512 504.4C794.512 505.408 793.168 505.408 792.496 505.408C791.488 505.744 790.816 505.744 789.808 505.408C776.032 505.072 762.256 506.416 748.48 507.424C727.312 508.768 706.144 511.792 685.312 515.488C675.904 516.832 666.832 518.848 657.76 520.528L648.352 522.544ZM738.4 540.688C738.064 540.688 737.392 540.688 736.72 540.352C736.384 540.352 735.712 540.016 735.712 539.68C735.712 539.344 736.048 538.672 736.384 538.672C738.736 538 740.752 537.664 743.104 537.328L756.544 535.312C766.624 534.304 777.04 534.304 787.456 534.304C788.128 534.304 788.8 534.64 788.8 535.648C788.464 535.984 788.128 536.32 787.792 536.32C784.768 537.328 782.08 536.992 779.056 536.992H775.696C768.64 536.656 761.92 537.328 755.536 538.336C749.824 539.68 744.112 540.016 738.4 540.688ZM729.328 532.96C728.32 532.96 726.64 532.96 726.304 531.28C725.968 529.936 727.648 529.6 728.992 529.264C730 528.928 731.008 528.928 732.016 528.592C748.144 526.576 764.608 524.896 781.072 524.224C786.784 523.888 792.16 524.56 797.536 526.912C796.864 528.592 795.856 528.592 794.848 528.592C792.16 528.928 789.472 529.264 786.448 528.928C769.648 528.928 753.184 530.272 736.384 532.624C734.032 532.96 731.68 533.632 729.328 532.96Z" fill="black"/>
<path d="M774.158 778.491C776.008 777.889 777.652 777.085 778.885 775.477C777.036 776.08 775.392 777.085 774.158 778.491ZM767.787 774.673C768.198 773.668 768.609 772.664 769.431 772.061C772.103 770.252 774.98 768.443 777.652 766.434C777.858 766.434 778.269 766.434 778.474 766.635C778.474 766.635 778.68 767.037 778.474 767.238C775.597 770.654 772.925 774.271 767.787 774.673ZM764.499 764.022C764.293 763.821 764.293 763.419 764.293 763.218C765.527 762.013 766.76 761.209 768.404 760.807H768.815C768.815 761.008 768.815 761.008 768.815 761.209V761.611C767.787 762.816 766.554 763.62 765.115 764.022C764.91 764.223 764.704 764.022 764.499 764.022ZM760.799 762.816C760.594 762.816 760.183 762.615 760.183 762.415C759.977 762.415 759.977 762.013 760.183 761.812C763.06 759.601 765.937 757.591 769.431 756.386C767.582 759.802 764.499 761.611 760.799 762.816ZM778.885 775.477C781.352 774.271 783.201 772.664 784.229 770.051L778.885 775.477ZM784.229 770.051C784.435 769.85 784.846 769.649 785.051 769.247L784.229 770.051ZM785.051 769.247L785.873 768.644V768.443L785.051 769.247ZM785.873 768.443C787.106 767.84 787.723 766.836 788.134 765.429C787.106 766.233 786.284 767.037 785.873 768.443ZM774.158 753.371C774.569 751.965 775.186 750.96 776.419 750.156C776.008 751.563 775.186 752.567 774.158 753.17V753.371ZM788.134 765.429C788.956 765.027 789.573 764.424 789.778 763.419L789.573 763.218H789.367C788.545 763.821 788.339 764.625 788.134 765.429ZM751.528 778.29C756.255 779.697 766.76 781.305 771.076 778.29C778.68 773.266 785.051 767.238 789.573 759.601C792.861 754.175 792.655 753.773 794.094 747.744C794.094 747.141 794.505 746.74 794.505 746.338C795.738 741.916 795.327 742.252 794.3 738.031C793.067 732.806 791.422 730.529 788.134 726.309C786.079 723.495 783.476 721.664 781.215 719.052C774.638 714.497 773.565 715.479 766.372 713.469C761.85 712.264 750.66 713.447 746.961 716.261C739.973 721.486 737.827 722.401 733.83 729.1C732.597 732.315 732.026 733.007 730.588 736.022C728.327 740.443 728.122 742.944 728.327 747.968C728.327 751.987 728.943 753.974 730.588 757.993C732.848 763.821 733.237 762.816 736.731 768.041C738.375 770.453 740.43 772.463 742.691 774.07C745.363 775.879 748.24 777.487 751.528 778.29ZM789.573 752.165C789.367 752.165 789.367 751.764 789.367 751.563C789.778 749.553 790.395 747.744 791.833 746.137V745.534C791.833 745.735 791.833 745.936 791.628 746.137C791.422 748.146 791.422 750.156 790.395 751.965C790.189 752.165 789.984 752.567 789.573 752.165Z" fill="#FF4650"/>
</svg>
